<svg width="30" height="30" viewBox="0 0 30 30" fill="none" xmlns="http://www.w3.org/2000/svg">
<path fill-rule="evenodd" clip-rule="evenodd" d="M8.95301 0.421313C10.517 0.349313 11.0157 0.333313 14.9997 0.333313C18.9837 0.333313 19.4823 0.350646 21.045 0.421313C22.6077 0.49198 23.6743 0.741313 24.6077 1.10265C25.585 1.47198 26.4717 2.04931 27.205 2.79598C27.9517 3.52798 28.5277 4.41331 28.8957 5.39198C29.2583 6.32531 29.5063 7.39198 29.5783 8.95198C29.6503 10.5186 29.6663 11.0173 29.6663 15C29.6663 18.984 29.649 19.4826 29.5783 21.0466C29.5077 22.6066 29.2583 23.6733 28.8957 24.6066C28.5277 25.5854 27.9507 26.4722 27.205 27.2053C26.4717 27.952 25.585 28.528 24.6077 28.896C23.6743 29.2586 22.6077 29.5066 21.0477 29.5786C19.4823 29.6506 18.9837 29.6666 14.9997 29.6666C11.0157 29.6666 10.517 29.6493 8.95301 29.5786C7.39301 29.508 6.32634 29.2586 5.39301 28.896C4.41424 28.5279 3.52744 27.951 2.79434 27.2053C2.04818 26.4729 1.47076 25.5865 1.10234 24.608C0.741008 23.6746 0.493008 22.608 0.421008 21.048C0.349008 19.4813 0.333008 18.9826 0.333008 15C0.333008 11.016 0.350341 10.5173 0.421008 8.95465C0.491674 7.39198 0.741008 6.32531 1.10234 5.39198C1.4713 4.41342 2.04917 3.52706 2.79567 2.79465C3.52773 2.04865 4.41364 1.47124 5.39167 1.10265C6.32501 0.741313 7.39167 0.493313 8.95168 0.421313H8.95301ZM20.9263 3.06131C19.3797 2.99065 18.9157 2.97598 14.9997 2.97598C11.0837 2.97598 10.6197 2.99065 9.07301 3.06131C7.64234 3.12665 6.86634 3.36531 6.34901 3.56665C5.66501 3.83331 5.17567 4.14931 4.66234 4.66265C4.17573 5.13605 3.80125 5.71236 3.56634 6.34931C3.36501 6.86665 3.12634 7.64265 3.06101 9.07331C2.99034 10.62 2.97567 11.084 2.97567 15C2.97567 18.916 2.99034 19.38 3.06101 20.9266C3.12634 22.3573 3.36501 23.1333 3.56634 23.6506C3.80101 24.2866 4.17567 24.864 4.66234 25.3373C5.13567 25.824 5.71301 26.1986 6.34901 26.4333C6.86634 26.6346 7.64234 26.8733 9.07301 26.9386C10.6197 27.0093 11.0823 27.024 14.9997 27.024C18.917 27.024 19.3797 27.0093 20.9263 26.9386C22.357 26.8733 23.133 26.6346 23.6503 26.4333C24.3343 26.1666 24.8237 25.8506 25.337 25.3373C25.8237 24.864 26.1983 24.2866 26.433 23.6506C26.6343 23.1333 26.873 22.3573 26.9383 20.9266C27.009 19.38 27.0237 18.916 27.0237 15C27.0237 11.084 27.009 10.62 26.9383 9.07331C26.873 7.64265 26.6343 6.86665 26.433 6.34931C26.1663 5.66531 25.8503 5.17598 25.337 4.66265C24.8636 4.17607 24.2873 3.80159 23.6503 3.56665C23.133 3.36531 22.357 3.12665 20.9263 3.06131ZM13.1263 19.5213C14.1726 19.9568 15.3375 20.0156 16.4222 19.6876C17.507 19.3596 18.4442 18.6652 19.0738 17.723C19.7034 16.7807 19.9864 15.6491 19.8744 14.5215C19.7624 13.3938 19.2623 12.3399 18.4597 11.54C17.948 11.0286 17.3293 10.6371 16.6481 10.3935C15.9669 10.15 15.2402 10.0605 14.5203 10.1315C13.8004 10.2025 13.1052 10.4322 12.4847 10.8042C11.8643 11.1761 11.334 11.681 10.9321 12.2824C10.5302 12.8839 10.2666 13.567 10.1604 14.2826C10.0541 14.9982 10.1079 15.7284 10.3177 16.4207C10.5276 17.113 10.8883 17.7501 11.374 18.2863C11.8596 18.8224 12.4581 19.2442 13.1263 19.5213ZM9.66901 9.66931C10.369 8.96928 11.2001 8.41398 12.1147 8.03513C13.0294 7.65627 14.0097 7.46128 14.9997 7.46128C15.9897 7.46128 16.97 7.65627 17.8846 8.03513C18.7992 8.41398 19.6303 8.96928 20.3303 9.66931C21.0304 10.3693 21.5857 11.2004 21.9645 12.115C22.3434 13.0297 22.5384 14.01 22.5384 15C22.5384 15.99 22.3434 16.9703 21.9645 17.8849C21.5857 18.7996 21.0304 19.6306 20.3303 20.3306C18.9166 21.7444 16.9991 22.5387 14.9997 22.5387C13.0003 22.5387 11.0828 21.7444 9.66901 20.3306C8.25523 18.9169 7.46097 16.9994 7.46097 15C7.46097 13.0006 8.25523 11.0831 9.66901 9.66931ZM24.2103 8.58398C24.3838 8.42034 24.5227 8.22355 24.6187 8.00528C24.7148 7.787 24.7661 7.55167 24.7696 7.31322C24.773 7.07477 24.7286 6.83804 24.639 6.61706C24.5493 6.39608 24.4163 6.19533 24.2476 6.0267C24.079 5.85807 23.8782 5.72499 23.6573 5.63534C23.4363 5.54568 23.1996 5.50128 22.9611 5.50476C22.7226 5.50823 22.4873 5.55952 22.269 5.65557C22.0508 5.75163 21.854 5.89051 21.6903 6.06398C21.3721 6.40135 21.1978 6.84947 21.2046 7.31322C21.2114 7.77696 21.3986 8.21982 21.7266 8.54777C22.0545 8.87572 22.4974 9.06295 22.9611 9.06971C23.4248 9.07647 23.873 8.90223 24.2103 8.58398Z" fill="#D4D3FB"/>
</svg>
